<?xml version="1.0" encoding="UTF-8" standalone="no"?><svg xmlns="http://www.w3.org/2000/svg" xmlns:xlink="http://www.w3.org/1999/xlink" contentScriptType="application/ecmascript" contentStyleType="text/css" height="580.2083px" preserveAspectRatio="none" style="width:662px;height:580px;background:#00000000;" version="1.1" viewBox="0 0 662 580" width="662.5px" zoomAndPan="magnify"><defs/><g><!--MD5=[8fc3522a43f8c7199df5e09e5bb0188e]
entity user--><polygon points="260.4627,27.027,259.2412,28.6961,257.7964,31.1407,255.73,32.7882,253.5586,33.6891,251.8273,33.7673,249.602,32.6406,247.5024,31.9045,245.9087,30.41,245.0728,28.6991,244.577,27.3368,244.0913,25.5573,243.303,24.0261,243.9088,22.5311,244.4395,20.8934,246.4313,19.5981,247.8325,17.9175,249.567,17.3594,251.6289,16.8788,254.273,17.1644,255.7213,17.8474,257.4051,18.157,259.4524,20.2545,260.1661,22.4689,260.4762,23.9798,260.125,26.4696" style="stroke:#333333;stroke-width:1.0416666666666667;fill:none;"/><path d="M252.0833,33.3333 L252.2779,33.3333 L251.6997,38.9583 L252.2623,44.5833 L252.4534,50.2083 L251.4228,55.8333 L252.0833,61.4583 M238.5417,41.6667 L238.5417,41.5947 L243.9583,41.2718 L249.375,41.3116 L254.7917,41.6036 L260.2083,41.0265 L265.625,41.6667 M252.0833,61.4583 L252.4707,61.7941 L248.934,64.2011 L246.5283,67.5884 L244.2606,71.0953 L241.19,73.9063 L238.5417,77.0833 M252.0833,61.4583 L252.1311,61.4997 L254.7693,64.564 L257.6249,67.8166 L260.3757,70.9783 L263.3265,74.3135 L265.625,77.0833 " fill="none" style="stroke:#333333;stroke-width:1.0416666666666667;"/><text fill="#2E2E2E" font-family="&quot;Segoe Print&quot;" font-size="14.5833" lengthAdjust="spacing" textLength="32.2917" x="235.9375" y="98.4741">User</text><!--MD5=[c05fcadc036a699206cfdfa4a4fdb889]
entity controller--><polygon points="164.5833,168.75,164.5833,168.9689,174.8775,168.3184,185.1716,168.9513,195.4657,169.1663,205.7598,168.0069,216.0539,168.669,226.348,168.3057,236.6422,168.3505,246.9363,168.679,257.2304,168.0298,267.5245,169.3267,277.8186,168.0935,288.1127,168.544,298.4069,169.1999,308.701,168.6606,318.9951,168.8211,329.2892,168.7167,339.5833,168.75,339.6071,168.8073,340.2044,169.0708,340.8397,169.426,341.4403,169.6975,342.0306,169.9442,342.5296,169.9704,342.6113,170.0042,342.9224,170.6212,343.243,171.2422,343.0305,171.6423,343.7236,172.4176,343.75,172.9167,343.4411,172.9167,344.3061,183.0184,343.2344,193.1201,343.6786,203.2218,344.5225,213.3236,343.75,223.4253,343.7344,223.4188,343.5397,224.0285,343.3705,224.6488,343.1513,225.2484,342.7724,225.7818,342.5296,226.3716,342.5678,226.4637,341.8643,226.432,341.3889,226.951,340.8347,227.2797,340.2317,227.4905,339.5833,227.592,339.5833,228.2305,329.2892,227.0888,318.9951,226.9126,308.701,226.9447,298.4069,227.5306,288.1127,227.3872,277.8186,228.3018,267.5245,227.41,257.2304,227.2346,246.9363,227.8297,236.6422,226.8973,226.348,227.0512,216.0539,228.268,205.7598,228.0458,195.4657,228.3571,185.1716,227.2568,174.8775,227.9245,164.5833,227.592,164.6618,227.7814,163.9313,227.1963,163.3921,227.0731,162.8323,226.9001,162.3129,226.8247,161.6371,226.3716,161.6357,226.371,161.5414,225.8438,160.9713,225.1195,160.6876,224.5138,160.8223,224.0815,160.4167,223.4253,159.6699,223.4253,160.9468,213.3236,160.6319,203.2218,160.1376,193.1201,160.0482,183.0184,160.4167,172.9167,160.5638,172.9776,160.5647,172.2876,161.0947,171.8168,160.9716,171.0755,161.591,170.6417,161.6371,169.9704,161.7014,170.1257,162.2589,169.8049,162.8218,169.4974,163.5014,169.4712,164.0756,169.1909,164.5833,168.75" style="stroke:#333333;stroke-width:1.0416666666666667;fill:none;"/><polygon points="322.9167,173.9583,322.9167,174.0313,326.0417,173.8145,329.1667,174.0254,332.2917,174.0971,335.4167,173.7106,338.5417,173.9583,338.5147,173.9583,338.3936,176.0417,338.4085,178.125,338.518,180.2083,338.3016,182.2917,338.5417,184.375,338.5417,184.5672,335.4167,184.1562,332.2917,184.3063,329.1667,184.525,326.0417,184.3452,322.9167,184.375,322.9404,184.375,322.9056,182.2917,322.9787,180.2083,322.9997,178.125,323.12,176.0417,322.9167,173.9583" style="stroke:#333333;stroke-width:1.0416666666666667;fill:none;"/><polygon points="320.8333,176.0417,320.8333,176.1146,321.6667,175.8978,322.5,176.1088,323.3333,176.1804,324.1667,175.794,325,176.0417,324.973,176.0417,324.8519,176.4583,324.8668,176.875,324.9763,177.2917,324.7599,177.7083,325,178.125,325,178.3172,324.1667,177.9062,323.3333,178.0563,322.5,178.275,321.6667,178.0952,320.8333,178.125,320.857,178.125,320.8222,177.7083,320.8953,177.2917,320.9164,176.875,321.0367,176.4583,320.8333,176.0417" style="stroke:#333333;stroke-width:1.0416666666666667;fill:none;"/><polygon points="320.8333,180.2083,320.8333,180.2813,321.6667,180.0645,322.5,180.2754,323.3333,180.3471,324.1667,179.9606,325,180.2083,324.973,180.2083,324.8519,180.625,324.8668,181.0417,324.9763,181.4583,324.7599,181.875,325,182.2917,325,182.4839,324.1667,182.0728,323.3333,182.223,322.5,182.4416,321.6667,182.2619,320.8333,182.2917,320.857,182.2917,320.8222,181.875,320.8953,181.4583,320.9164,181.0417,321.0367,180.625,320.8333,180.2083" style="stroke:#333333;stroke-width:1.0416666666666667;fill:none;"/><text fill="#2E2E2E" font-family="&quot;Segoe Print&quot;" font-size="14.5833" lengthAdjust="spacing" textLength="131.25" x="181.25" y="208.8908">CounterController</text><!--MD5=[64be36af1f03b68f71797d2cda2eca2e]
entity dapr--><polygon points="213.0208,289.5833,213.0208,289.8023,222.7865,289.1517,232.5521,289.7847,242.3177,289.9997,252.0833,288.8402,261.849,289.5024,271.6146,289.1391,281.3802,289.1839,291.1458,289.5833,291.1368,289.5615,291.6432,289.6056,292.3979,290.2491,292.8299,290.1134,293.4766,290.4962,294.0921,290.8037,294.2307,290.8611,294.3087,291.3816,294.6022,291.9913,294.8141,292.5672,295.1257,293.1845,295.3125,293.75,295.5616,293.75,295.9226,303.8517,296.0115,313.9535,296.0201,324.0552,295.5777,334.1569,295.3125,344.2586,295.4612,344.3202,295.2937,344.9412,294.593,345.3413,294.7979,346.1166,294.2411,346.5763,294.0921,347.2049,294.163,347.3761,293.4371,347.2902,292.9045,347.6711,292.4229,348.175,291.7286,348.1656,291.1458,348.4253,291.1458,348.535,281.3802,348.778,271.6146,348.8589,261.849,348.4212,252.0833,348.7245,242.3177,347.829,232.5521,348.7215,222.7865,348.9963,213.0208,348.4253,213.0799,348.5679,212.513,348.3779,211.7781,347.7822,211.1664,347.4838,210.5812,347.2496,210.0746,347.2049,210.0557,347.1971,209.7674,346.5895,209.805,346.1169,209.2863,345.4139,208.9882,344.8023,208.8542,344.2586,209.0919,344.2586,208.1595,334.1569,208.3134,324.0552,209.5302,313.9535,209.308,303.8517,208.8542,293.75,209.0898,293.8476,208.995,293.118,209.4447,292.6139,209.7758,292.0607,209.6789,291.3302,210.0746,290.8037,210.0618,290.773,210.6806,290.6001,211.3397,290.5246,211.8418,290.0701,212.493,289.9758,213.0208,289.5833" style="stroke:#333333;stroke-width:1.0416666666666667;fill:none;"/><polygon points="274.4792,294.7917,274.4792,294.8646,277.6042,294.6478,280.7292,294.8588,283.8542,294.9304,286.9792,294.544,290.1042,294.7917,290.0772,294.7917,289.9561,296.875,289.971,298.9583,290.0805,301.0417,289.8641,303.125,290.1042,305.2083,290.1042,305.4006,286.9792,304.9895,283.8542,305.1397,280.7292,305.3583,277.6042,305.1785,274.4792,305.2083,274.5029,305.2083,274.4681,303.125,274.5412,301.0417,274.5622,298.9583,274.6825,296.875,274.4792,294.7917" style="stroke:#333333;stroke-width:1.0416666666666667;fill:none;"/><polygon points="272.3958,296.875,272.3958,296.948,273.2292,296.7311,274.0625,296.9421,274.8958,297.0138,275.7292,296.6273,276.5625,296.875,276.5355,296.875,276.4144,297.2917,276.4293,297.7083,276.5388,298.125,276.3224,298.5417,276.5625,298.9583,276.5625,299.1506,275.7292,298.7395,274.8958,298.8897,274.0625,299.1083,273.2292,298.9285,272.3958,298.9583,272.4195,298.9583,272.3847,298.5417,272.4578,298.125,272.4789,297.7083,272.5992,297.2917,272.3958,296.875" style="stroke:#333333;stroke-width:1.0416666666666667;fill:none;"/><polygon points="272.3958,301.0417,272.3958,301.1146,273.2292,300.8978,274.0625,301.1088,274.8958,301.1804,275.7292,300.794,276.5625,301.0417,276.5355,301.0417,276.4144,301.4583,276.4293,301.875,276.5388,302.2917,276.3224,302.7083,276.5625,303.125,276.5625,303.3172,275.7292,302.9062,274.8958,303.0563,274.0625,303.275,273.2292,303.0952,272.3958,303.125,272.4195,303.125,272.3847,302.7083,272.4578,302.2917,272.4789,301.875,272.5992,301.4583,272.3958,301.0417" style="stroke:#333333;stroke-width:1.0416666666666667;fill:none;"/><text fill="#2E2E2E" font-family="&quot;Segoe Print&quot;" font-size="14.5833" lengthAdjust="spacing" textLength="34.375" x="229.6875" y="329.7241">Dapr</text><!--MD5=[fee4b3aad4cf285741449ffd553b2200]
entity foo--><polygon points="21.875,410.4167,21.875,410.6356,32.2917,409.9851,42.7083,410.618,53.125,410.833,63.5417,409.6735,73.9583,410.3357,84.375,409.9724,94.7917,410.0172,105.2083,410.3457,115.625,409.6965,126.0417,410.9934,136.4583,409.7601,146.875,410.2107,157.2917,410.8666,167.7083,410.3273,178.125,410.4877,188.5417,410.3834,198.9583,410.6026,209.375,410.6658,219.7917,411.0268,230.2083,410.4167,230.2975,410.6319,230.8878,410.8786,231.4207,410.9865,232.0377,411.2976,232.6587,411.6182,233.1546,411.6371,232.9233,411.5412,233.6163,412.3165,233.5477,412.7762,234.0581,413.4758,233.9721,413.9283,234.375,414.5833,234.3036,414.5833,235.1475,424.6851,234.3242,434.7868,234.4847,444.8885,234.7277,454.9902,234.375,465.092,234.5085,465.1473,234.1297,465.6807,233.979,466.3086,233.4591,466.7837,233.4899,467.4868,233.1546,468.0382,233.2275,468.2141,232.6244,468.4249,232.0576,468.723,231.3227,468.6155,230.7109,468.8053,230.2083,469.2586,230.2083,468.6113,219.7917,469.1973,209.375,469.0539,198.9583,469.9684,188.5417,469.0767,178.125,468.9013,167.7083,469.4964,157.2917,468.564,146.875,468.7179,136.4583,469.9346,126.0417,469.7124,115.625,470.0237,105.2083,468.9234,94.7917,469.5911,84.375,469.8736,73.9583,468.7665,63.5417,469.1588,53.125,469.3899,42.7083,469.9375,32.2917,469.2543,21.875,469.2586,21.9365,469.407,21.2122,468.8369,20.6065,468.5532,20.1742,468.6879,19.4227,468.0523,18.9287,468.0382,19.092,468.1059,18.7509,467.4764,18.3546,466.8241,18.083,466.2235,18.0996,465.7422,17.7083,465.092,17.3965,465.092,18.3249,454.9902,17.1326,444.8885,18.3515,434.7868,18.2128,424.6851,17.7083,414.5833,17.7869,414.6159,17.9676,414.0004,18.4296,413.5014,18.6374,412.8971,18.7389,412.2488,18.9287,411.6371,18.9644,411.7231,19.5007,411.3512,20.2024,411.3787,20.7171,410.9545,21.3087,410.7161,21.875,410.4167" style="stroke:#333333;stroke-width:1.0416666666666667;fill:none;"/><polygon points="213.5417,415.625,213.5417,415.698,216.6667,415.4811,219.7917,415.6921,222.9167,415.7638,226.0417,415.3773,229.1667,415.625,229.1397,415.625,229.0186,417.7083,229.0335,419.7917,229.143,421.875,228.9266,423.9583,229.1667,426.0417,229.1667,426.2339,226.0417,425.8228,222.9167,425.973,219.7917,426.1916,216.6667,426.0119,213.5417,426.0417,213.5654,426.0417,213.5306,423.9583,213.6037,421.875,213.6247,419.7917,213.745,417.7083,213.5417,415.625" style="stroke:#333333;stroke-width:1.0416666666666667;fill:none;"/><polygon points="211.4583,417.7083,211.4583,417.7813,212.2917,417.5645,213.125,417.7754,213.9583,417.8471,214.7917,417.4606,215.625,417.7083,215.598,417.7083,215.4769,418.125,215.4918,418.5417,215.6013,418.9583,215.3849,419.375,215.625,419.7917,215.625,419.9839,214.7917,419.5728,213.9583,419.723,213.125,419.9416,212.2917,419.7619,211.4583,419.7917,211.482,419.7917,211.4472,419.375,211.5203,418.9583,211.5414,418.5417,211.6617,418.125,211.4583,417.7083" style="stroke:#333333;stroke-width:1.0416666666666667;fill:none;"/><polygon points="211.4583,421.875,211.4583,421.948,212.2917,421.7311,213.125,421.9421,213.9583,422.0138,214.7917,421.6273,215.625,421.875,215.598,421.875,215.4769,422.2917,215.4918,422.7083,215.6013,423.125,215.3849,423.5417,215.625,423.9583,215.625,424.1506,214.7917,423.7395,213.9583,423.8897,213.125,424.1083,212.2917,423.9285,211.4583,423.9583,211.482,423.9583,211.4472,423.5417,211.5203,423.125,211.5414,422.7083,211.6617,422.2917,211.4583,421.875" style="stroke:#333333;stroke-width:1.0416666666666667;fill:none;"/><text fill="#2E2E2E" font-family="&quot;Segoe Print&quot;" font-size="14.5833" lengthAdjust="spacing" textLength="164.5833" x="38.5417" y="450.5575">CounterActor(id = foo)</text><!--MD5=[e7e2d538e1588ff0e1dba32ca331f577]
entity bar--><polygon points="275,410.4167,275,410.6356,285.4167,409.9851,295.8333,410.618,306.25,410.833,316.6667,409.6735,327.0833,410.3357,337.5,409.9724,347.9167,410.0172,358.3333,410.3457,368.75,409.6965,379.1667,410.9934,389.5833,409.7601,400,410.2107,410.4167,410.8666,420.8333,410.3273,431.25,410.4877,441.6667,410.3834,452.0833,410.6026,462.5,410.6658,472.9167,411.0268,483.3333,410.4167,483.4225,410.6319,484.0128,410.8786,484.5457,410.9865,485.1627,411.2976,485.7837,411.6182,486.2796,411.6371,486.0483,411.5412,486.7413,412.3165,486.6727,412.7762,487.1831,413.4758,487.0971,413.9283,487.5,414.5833,487.4286,414.5833,488.2725,424.6851,487.4492,434.7868,487.6097,444.8885,487.8527,454.9902,487.5,465.092,487.6335,465.1473,487.2547,465.6807,487.104,466.3086,486.5841,466.7837,486.6149,467.4868,486.2796,468.0382,486.3525,468.2141,485.7494,468.4249,485.1826,468.723,484.4477,468.6155,483.8359,468.8053,483.3333,469.2586,483.3333,468.6113,472.9167,469.1973,462.5,469.0539,452.0833,469.9684,441.6667,469.0767,431.25,468.9013,420.8333,469.4964,410.4167,468.564,400,468.7179,389.5833,469.9346,379.1667,469.7124,368.75,470.0237,358.3333,468.9234,347.9167,469.5911,337.5,469.8736,327.0833,468.7665,316.6667,469.1588,306.25,469.3899,295.8333,469.9375,285.4167,469.2543,275,469.2586,275.0615,469.407,274.3372,468.8369,273.7315,468.5532,273.2992,468.6879,272.5477,468.0523,272.0537,468.0382,272.217,468.1059,271.8759,467.4764,271.4796,466.8241,271.208,466.2235,271.2246,465.7422,270.8333,465.092,270.5215,465.092,271.4499,454.9902,270.2576,444.8885,271.4765,434.7868,271.3378,424.6851,270.8333,414.5833,270.9119,414.6159,271.0926,414.0004,271.5546,413.5014,271.7624,412.8971,271.8639,412.2488,272.0537,411.6371,272.0894,411.7231,272.6257,411.3512,273.3274,411.3787,273.8421,410.9545,274.4337,410.7161,275,410.4167" style="stroke:#333333;stroke-width:1.0416666666666667;fill:none;"/><polygon points="466.6667,415.625,466.6667,415.698,469.7917,415.4811,472.9167,415.6921,476.0417,415.7638,479.1667,415.3773,482.2917,415.625,482.2647,415.625,482.1436,417.7083,482.1585,419.7917,482.268,421.875,482.0516,423.9583,482.2917,426.0417,482.2917,426.2339,479.1667,425.8228,476.0417,425.973,472.9167,426.1916,469.7917,426.0119,466.6667,426.0417,466.6904,426.0417,466.6556,423.9583,466.7287,421.875,466.7497,419.7917,466.87,417.7083,466.6667,415.625" style="stroke:#333333;stroke-width:1.0416666666666667;fill:none;"/><polygon points="464.5833,417.7083,464.5833,417.7813,465.4167,417.5645,466.25,417.7754,467.0833,417.8471,467.9167,417.4606,468.75,417.7083,468.723,417.7083,468.6019,418.125,468.6168,418.5417,468.7263,418.9583,468.5099,419.375,468.75,419.7917,468.75,419.9839,467.9167,419.5728,467.0833,419.723,466.25,419.9416,465.4167,419.7619,464.5833,419.7917,464.607,419.7917,464.5722,419.375,464.6453,418.9583,464.6664,418.5417,464.7867,418.125,464.5833,417.7083" style="stroke:#333333;stroke-width:1.0416666666666667;fill:none;"/><polygon points="464.5833,421.875,464.5833,421.948,465.4167,421.7311,466.25,421.9421,467.0833,422.0138,467.9167,421.6273,468.75,421.875,468.723,421.875,468.6019,422.2917,468.6168,422.7083,468.7263,423.125,468.5099,423.5417,468.75,423.9583,468.75,424.1506,467.9167,423.7395,467.0833,423.8897,466.25,424.1083,465.4167,423.9285,464.5833,423.9583,464.607,423.9583,464.5722,423.5417,464.6453,423.125,464.6664,422.7083,464.7867,422.2917,464.5833,421.875" style="stroke:#333333;stroke-width:1.0416666666666667;fill:none;"/><text fill="#2E2E2E" font-family="&quot;Segoe Print&quot;" font-size="14.5833" lengthAdjust="spacing" textLength="164.5833" x="291.6667" y="450.5575">CounterActor(id = bar)</text><path d="M380.7292,175.5208 L380.7292,193.75 L344.2188,197.9167 L380.7292,202.0833 L380.7292,219.9178 A4.1667,4.1667 0 0 0 384.8958,224.0845 L646.3542,224.0845 A4.1667,4.1667 0 0 0 650.5208,219.9178 L650.5208,181.7708 L640.1042,171.3542 L384.8958,171.3542 A4.1667,4.1667 0 0 0 380.7292,175.5208 " fill="#17A2B8" style="stroke:#2E2E2E;stroke-width:1.0416666666666667;"/><path d="M640.1042,171.3542 L640.1042,179.6875 A2.0833,2.0833 0 0 0 642.1875,181.7708 L650.5208,181.7708 L640.1042,171.3542 " fill="#17A2B8" style="stroke:#2E2E2E;stroke-width:1.0416666666666667;"/><text fill="#FFFFFF" font-family="&quot;Segoe Print&quot;" font-size="13.5417" lengthAdjust="spacing" textLength="231.25" x="392.1875" y="194.8629">パスパラメーターをアクターIDとして</text><text fill="#FFFFFF" font-family="&quot;Segoe Print&quot;" font-size="13.5417" lengthAdjust="spacing" textLength="237.5" x="392.1875" y="210.8114">アクターのメソッド呼び出しAPIを叩く</text><path d="M331.7708,296.3542 L331.7708,314.5833 L295.5521,318.75 L331.7708,322.9167 L331.7708,340.7511 A4.1667,4.1667 0 0 0 335.9375,344.9178 L576.5625,344.9178 A4.1667,4.1667 0 0 0 580.7292,340.7511 L580.7292,302.6042 L570.3125,292.1875 L335.9375,292.1875 A4.1667,4.1667 0 0 0 331.7708,296.3542 " fill="#17A2B8" style="stroke:#2E2E2E;stroke-width:1.0416666666666667;"/><path d="M570.3125,292.1875 L570.3125,300.5208 A2.0833,2.0833 0 0 0 572.3958,302.6042 L580.7292,302.6042 L570.3125,292.1875 " fill="#17A2B8" style="stroke:#2E2E2E;stroke-width:1.0416666666666667;"/><text fill="#FFFFFF" font-family="&quot;Segoe Print&quot;" font-size="13.5417" lengthAdjust="spacing" textLength="190.625" x="343.2292" y="315.6962">アクターIDに対応するアクター</text><text fill="#FFFFFF" font-family="&quot;Segoe Print&quot;" font-size="13.5417" lengthAdjust="spacing" textLength="216.6667" x="343.2292" y="331.6447">インスタンスのメソッドを呼び出す</text><path d="M77.6042,535.4167 L77.6042,563.8652 A4.1667,4.1667 0 0 0 81.7708,568.0318 L170.3125,568.0318 A4.1667,4.1667 0 0 0 174.4792,563.8652 L174.4792,541.6667 L164.0625,531.25 L130.2083,531.25 L126.0417,468.9479 L121.875,531.25 L81.7708,531.25 A4.1667,4.1667 0 0 0 77.6042,535.4167 " fill="#17A2B8" style="stroke:#2E2E2E;stroke-width:1.0416666666666667;"/><path d="M164.0625,531.25 L164.0625,539.5833 A2.0833,2.0833 0 0 0 166.1458,541.6667 L174.4792,541.6667 L164.0625,531.25 " fill="#17A2B8" style="stroke:#2E2E2E;stroke-width:1.0416666666666667;"/><text fill="#FFFFFF" font-family="&quot;Segoe Print&quot;" font-size="13.5417" lengthAdjust="spacing" textLength="64.5833" x="89.0625" y="554.7587">count = 2</text><path d="M330.7292,535.4167 L330.7292,563.8652 A4.1667,4.1667 0 0 0 334.8958,568.0318 L423.4375,568.0318 A4.1667,4.1667 0 0 0 427.6042,563.8652 L427.6042,541.6667 L417.1875,531.25 L383.3333,531.25 L379.1667,468.9479 L375,531.25 L334.8958,531.25 A4.1667,4.1667 0 0 0 330.7292,535.4167 " fill="#17A2B8" style="stroke:#2E2E2E;stroke-width:1.0416666666666667;"/><path d="M417.1875,531.25 L417.1875,539.5833 A2.0833,2.0833 0 0 0 419.2708,541.6667 L427.6042,541.6667 L417.1875,531.25 " fill="#17A2B8" style="stroke:#2E2E2E;stroke-width:1.0416666666666667;"/><text fill="#FFFFFF" font-family="&quot;Segoe Print&quot;" font-size="13.5417" lengthAdjust="spacing" textLength="64.5833" x="342.1875" y="554.7587">count = 1</text><!--MD5=[7adbb595cba8ee6e5c2e30ed2de8c102]
link user to controller--><path d="M252.0833,106.5208 L252.3753,106.5208 L251.5079,117.7854 L252.3518,129.05 L252.6384,140.3146 L251.0925,151.5792 L252.0833,162.8438 " fill="none" style="stroke:#333333;stroke-width:3.125;"/><polygon fill="#333333" points="252.0833,168.4792,252.15,168.5088,252.7852,166.5457,253.8113,164.7564,254.7101,162.9105,255.1903,160.8786,256.25,159.1042,256.2309,159.0851,255.312,159.8328,254.4892,160.6767,253.7333,161.5874,252.7469,162.2678,252.0833,163.2708,252.2193,163.4068,251.0953,162.2828,250.3681,161.5556,249.6894,160.8769,248.7289,159.9164,247.9167,159.1042,247.9383,159.1138,248.7399,160.9747,249.64,162.8793,250.4925,164.7629,251.4358,166.6868,252.0833,168.4792" style="stroke:#333333;stroke-width:3.125;"/><!--MD5=[7e7f0043744302110eb524cfb97212c7]
link controller to dapr--><path d="M252.0833,227.1042 L252.3753,227.1042 L251.5079,238.4667 L252.3518,249.8292 L252.6384,261.1917 L251.0925,272.5542 L252.0833,283.9167 " fill="none" style="stroke:#333333;stroke-width:3.125;"/><polygon fill="#333333" points="252.0833,289.3542,252.15,289.3838,252.7852,287.4207,253.8113,285.6314,254.7101,283.7855,255.1903,281.7536,256.25,279.9792,256.2309,279.9601,255.312,280.7078,254.4892,281.5517,253.7333,282.4624,252.7469,283.1428,252.0833,284.1458,252.2193,284.2818,251.0953,283.1578,250.3681,282.4306,249.6894,281.7519,248.7289,280.7914,247.9167,279.9792,247.9383,279.9888,248.7399,281.8497,249.64,283.7543,250.4925,285.6379,251.4358,287.5618,252.0833,289.3542" style="stroke:#333333;stroke-width:3.125;"/><!--MD5=[a59a83b138270ccf44abe0c17c536f10]
link dapr to foo--><path d="M222.2083,347.9375 L222.4085,348.15 L214.0312,354.8507 L206.8273,362.797 L199.2413,370.3376 L190.3987,376.5444 L183.2216,384.5191 L175.1068,391.4985 L167.3652,398.874 L159.9479,406.5938 " fill="none" style="stroke:#333333;stroke-width:3.125;"/><polygon fill="#333333" points="156.1354,410.1875,156.1595,410.2564,158.0244,409.3735,160.0306,408.8944,161.9908,408.2838,163.7996,407.2408,165.818,406.7964,165.8172,406.7694,164.6355,406.6127,163.458,406.5919,162.2833,406.6656,161.0988,406.4136,159.9281,406.6179,160.1203,406.6237,159.7451,405.4333,159.9309,404.2599,160.1851,403.0885,160.0411,401.9051,160.1066,400.728,160.1285,400.7372,159.3021,402.6156,158.5753,404.5358,157.8005,406.4359,157.1172,408.3743,156.1354,410.1875" style="stroke:#333333;stroke-width:3.125;"/><!--MD5=[31d68d08de04d0948fc1e3af3f182f2d]
link dapr to bar--><path d="M282.1979,347.9375 L282.3972,348.1508 L289.6527,354.8491 L298.0765,362.7977 L306.1199,370.3392 L312.9121,376.5416 L321.3625,384.5188 L328.8795,391.4969 L336.7679,398.8725 L344.9792,406.5938 " fill="none" style="stroke:#333333;stroke-width:3.125;"/><polygon fill="#333333" points="348.8229,410.1875,348.8901,410.216,347.8886,408.2426,347.281,406.4364,346.5451,404.5757,345.3874,402.536,344.8136,400.7441,344.7866,400.7432,344.706,401.9169,344.7614,403.0952,344.9113,404.2768,344.7355,405.4472,345.0158,406.6332,345.0224,406.8254,343.8305,406.455,342.6578,406.6455,341.4875,406.9045,340.3035,406.7653,339.1267,406.8355,339.1345,406.8579,341.0624,407.4954,343.0255,408.2349,344.9716,408.9252,346.9501,409.7093,348.8229,410.1875" style="stroke:#333333;stroke-width:3.125;"/><!--MD5=[e19940e6fce9d9c313c923b707e64a6d]
@startuml dapr-actor-example
!theme sketchy-outline

actor User as user
[CounterController] as controller
[Dapr] as dapr
[CounterActor(id = foo)] as foo
[CounterActor(id = bar)] as bar

note right of controller
パスパラメーターをアクターIDとして
アクターのメソッド呼び出しAPIを叩く
end note

note right of dapr
アクターIDに対応するアクター
インスタンスのメソッドを呼び出す
end note

note bottom of foo
count = 2
end note

note bottom of bar
count = 1
end note

user - -> controller
controller - -> dapr
dapr - -> foo
dapr - -> bar
@enduml

@startuml dapr-actor-example



skinparam backgroundColor transparent
skinparam useBetaStyle false
skinparam handwritten true
skinparam shadowing false






<style>
  root {
    BackgroundColor transparent
    FontColor #2e2e2e
    HyperLinkColor #fd7e14
    LineColor #2e2e2e
    LineThickness 1
    Margin 10
    Padding 6
    Shadowing 0.0
  }
  node {
   Padding 15
   roundcorner 20
   BackgroundColor transparent
  }
  caption {
    LineThickness 0
  }
  footer {
    LineThickness 0
  }
  groupHeader {
    BackgroundColor #555555
    FontColor #17a2b8
    FontStyle bold
  }
  header {
    LineThickness 0
  }
  referenceHeader {
    BackgroundColor transparent
    FontColor #555555
    FontStyle bold
  }
  separator {
    BackgroundColor #ffffff
    FontColor transparent
    FontStyle bold
  }
  title {
	FontSize 20
	BorderRoundCorner            8
	BorderThickness 	         1
	BackgroundColor  transparent
	FontColor #333333
	BorderColor #555555
  }
  nwdiagDiagram {
	network {
			FontColor #2e2e2e
	BorderColor #333333
	BackgroundColor transparent    
		LineColor #333333
		LineThickness 1.0
		FontColor #2e2e2e
	}
	server {
			FontColor #2e2e2e
	BorderColor #333333
	BackgroundColor transparent
	}
	arrow {
		FontColor #2e2e2e
		LineColor #2e2e2e
	}
	group {
		BackGroundColor #ffffff
		LineColor #e6e6e6
		LineThickness 2.0
		Margin 5
		Padding 5
	}
  }
  ganttDiagram {
	task {
			FontColor #2e2e2e
	BorderColor #333333
	BackgroundColor transparent
		LineColor #333333
		Margin 10
		Padding 6
	}
	note {
		FontColor #ffffff
		LineColor #1592a6
		BackGroundColor transparent
	}
	separator {
		LineColor #4d4d4d
		BackGroundColor transparent
		FontColor #ffffff
	}
	milestone {
		FontColor #17a2b8
		FontSize 16
		FontStyle italic
		BackGroundColor #555555
		LineColor #4d4d4d
	}
	timeline {
		BackgroundColor #555555
		FontColor #ffffff
	}
	closed {
		BackgroundColor #e6ae06
		FontColor #ffffff
	}
  }
</style>
skinparam defaultFontName       "Segoe Print"
skinparam defaultFontSize       12
skinparam dpi                   100
skinparam shadowing             false
skinparam roundcorner           8
skinparam ParticipantPadding    40
skinparam BoxPadding            40
skinparam Padding               5
skinparam ArrowColor            #555555
skinparam stereotype {
    CBackgroundColor transparent
    CBorderColor #4d4d4d
    ABackgroundColor transparent
    ABorderColor #24963e
    IBackgroundColor transparent
    IBorderColor #c6303e
    EBackgroundColor transparent
    EBorderColor #e6ae06
    NBackgroundColor transparent
    NBorderColor #1592a6
}
skinparam title {
	FontColor	                 #2e2e2e
	BorderColor	                 #4d4d4d
	FontSize	    	         20
	BorderRoundCorner            8
	BorderThickness 	         1
	BackgroundColor              transparent
}

skinparam legend {
	BackgroundColor transparent
	BorderColor #4d4d4d
	FontColor #2e2e2e
}

skinparam swimlane {
	BorderColor #17a2b8
	BorderThickness 2
	TitleBackgroundColor  transparent
	TitleFontColor #2e2e2e
}


skinparam activity {
		FontColor #2e2e2e
	BorderColor #333333
	BackgroundColor transparent
	BarColor #28a745
	StartColor #17a2b8
	EndColor #17a2b8
	DiamondBackgroundColor transparent
  	DiamondBorderColor #4d4d4d
  	DiamondFontColor #2e2e2e
}


skinparam participant {
		FontColor #2e2e2e
	BorderColor #333333
	BackgroundColor transparent
	ParticipantBorderThickness 2
}


skinparam actor {
		FontColor #2e2e2e
	BorderColor #333333
	BackgroundColor transparent
}


skinparam arrow {
	Thickness 3
	Color #333333
	FontColor #2e2e2e
}


skinparam sequence {
	BorderColor #333333
	TitleFontColor #2e2e2e
	BackgroundColor transparent
	StartColor #333333
	EndColor #333333
	BoxBackgroundColor transparent
	BoxBorderColor #555555
	BoxFontColor #555555
	DelayFontColor #555555
	LifeLineBorderColor #555555
	LifeLineBorderThickness 2
	LifeLineBackgroundColor #4d4d4d
	GroupBorderColor #555555
	GroupFontColor #555555
	GroupHeaderFontColor #17a2b8
	GroupBackgroundColor #555555
	GroupHeaderBackgroundColor transparent
	DividerBackgroundColor #555555
    DividerBorderColor #555555
    DividerBorderThickness 2
    DividerFontColor #ffffff
	ReferenceBackgroundColor transparent
	ReferenceBorderColor #555555
	ReferenceFontColor #555555
	ReferenceHeaderFontColor #17a2b8
	ReferenceHeaderBackgroundColor #555555
	StereotypeFontColor #2e2e2e
}


skinparam partition {
	BorderColor #333333
	FontColor #333333
	BackgroundColor transparent
}


skinparam collections {
		FontColor #2e2e2e
	BorderColor #333333
	BackgroundColor transparent
}


skinparam control {
		FontColor #2e2e2e
	BorderColor #333333
	BackgroundColor transparent
}


skinparam entity {
		FontColor #2e2e2e
	BorderColor #333333
	BackgroundColor transparent
}


skinparam boundary {
		FontColor #2e2e2e
	BorderColor #333333
	BackgroundColor transparent
}


skinparam agent {
	BackgroundColor #ffc107
	BorderColor #ffc720
	FontColor #555555
}


skinparam note {
	BorderThickness 1
	BackgroundColor #17a2b8
	BorderColor #1592a6
	FontColor #ffffff
}


skinparam artifact {
	BackgroundColor transparent
	BorderColor #4d4d4d
	FontColor #4d4d4d
}


skinparam component {
		FontColor #2e2e2e
	BorderColor #333333
	BackgroundColor transparent
}


skinparam interface {
	BackgroundColor  transparent
	BorderColor  #dc3545
	FontColor #555555
}


skinparam storage {
	BackgroundColor transparent
  	BorderColor #e6ae06
	FontColor #e6ae06
}


skinparam node {
	BackgroundColor  transparent
	BorderColor #ffffff
	FontColor #ffffff
}


skinparam cloud {
	BackgroundColor transparent
	BorderColor #F2FCFE
	FontColor #2e2e2e
}


skinparam database {
		FontColor #2e2e2e
	BorderColor #333333
	BackgroundColor transparent
}


skinparam class {
		FontColor #2e2e2e
	BorderColor #333333
	BackgroundColor transparent
	HeaderBackgroundColor transparent
	StereotypeFontColor #555555
	BorderThickness 1
	AttributeFontColor #555555
	AttributeFontSize 11
}


skinparam object {
		FontColor #2e2e2e
	BorderColor #333333
	BackgroundColor transparent
	StereotypeFontColor #2e2e2e
	BorderThickness 1
	AttributeFontColor #2e2e2e
	AttributeFontSize 11
}


skinparam usecase {
		FontColor #2e2e2e
	BorderColor #333333
	BackgroundColor transparent
	BorderThickness 2
	StereotypeFontColor #333333
}


skinparam rectangle {
		FontColor #2e2e2e
	BorderColor #333333
	BackgroundColor transparent
	BorderThickness 2
	StereotypeFontColor #333333
}


skinparam package {
	BackgroundColor transparent
  	BorderColor #333333
	FontColor #333333
	BorderThickness 2
}


skinparam folder {
	BackgroundColor transparent
  	BorderColor #ffc107
	FontColor #ffc107
	BorderThickness 2
}


skinparam frame {
	BackgroundColor transparent
  	BorderColor #17a2b8
	FontColor #17a2b8
	BorderThickness 2
}


skinparam state {
		FontColor #2e2e2e
	BorderColor #333333
	BackgroundColor transparent
	StartColor #17a2b8
	EndColor #17a2b8
	AttributeFontColor #ffffff
	AttributeFontSize 11
}


skinparam queue {
		FontColor #2e2e2e
	BorderColor #333333
	BackgroundColor transparent
}


skinparam card {
	BackgroundColor transparent
	BorderColor #1592a6
	FontColor #1592a6
}


skinparam file {
	BackgroundColor transparent
	BorderColor #ffffff
	FontColor #ffffff
}


skinparam stack {
		FontColor #2e2e2e
	BorderColor #333333
	BackgroundColor transparent
}

actor User as user
[CounterController] as controller
[Dapr] as dapr
[CounterActor(id = foo)] as foo
[CounterActor(id = bar)] as bar

note right of controller
パスパラメーターをアクターIDとして
アクターのメソッド呼び出しAPIを叩く
end note

note right of dapr
アクターIDに対応するアクター
インスタンスのメソッドを呼び出す
end note

note bottom of foo
count = 2
end note

note bottom of bar
count = 1
end note

user - -> controller
controller - -> dapr
dapr - -> foo
dapr - -> bar
@enduml

PlantUML version 1.2021.16(Thu Dec 09 02:25:22 JST 2021)
(GPL source distribution)
Java Runtime: OpenJDK Runtime Environment
JVM: OpenJDK 64-Bit Server VM
Default Encoding: UTF-8
Language: ja
Country: JP
--></g></svg>